<svg width="150" height="71" viewBox="0 0 150 71" fill="none" xmlns="http://www.w3.org/2000/svg">
  <ellipse cx="139.463" cy="55.1653" rx="10.5372" ry="10.5372" fill="#48CFCB" />
  <path
    d="M2.64404 64.4628V4.80373H19.0503C23.3439 4.80373 26.5755 6.00143 28.7449 8.39684C30.9143 10.7696 31.999 14.2498 31.999 18.8372V46.7685C31.999 52.418 31.0047 56.7795 29.0161 59.8528C27.05 62.9262 23.5925 64.4628 18.6435 64.4628H2.64404ZM14.6437 53.9208H16.7114C18.9034 53.9208 19.9994 52.8587 19.9994 50.7345V19.9558C19.9994 17.9671 19.7282 16.6904 19.1859 16.1254C18.6661 15.5378 17.5927 15.2441 15.9656 15.2441H14.6437V53.9208Z"
    fill="white" />
  <path d="M36.609 10.4985V0.397095H48.7443V10.4985H36.609ZM36.609 64.4628V13.617H48.7443V64.4628H36.609Z"
    fill="white" />
  <path
    d="M63.998 65.0052C60.7213 65.0052 58.5066 64.3159 57.3541 62.9375C56.2242 61.5364 55.6593 59.4008 55.6593 56.5309V24.837H52.2357V15.583H55.6593V4.80373H67.4555V15.583H70.8791V24.837H67.4555V53.6835C67.4555 54.5196 67.5911 55.1072 67.8623 55.4462C68.1335 55.7851 68.6532 55.9546 69.4215 55.9546C69.9639 55.9546 70.4498 55.9094 70.8791 55.819V64.09C70.6079 64.1803 69.7605 64.3498 68.3368 64.5984C66.9132 64.8696 65.4669 65.0052 63.998 65.0052Z"
    fill="white" />
  <path
    d="M85.2177 65.0052C81.9409 65.0052 79.7263 64.3159 78.5738 62.9375C77.4439 61.5364 76.8789 59.4008 76.8789 56.5309V24.837H73.4553V15.583H76.8789V4.80373H88.6752V15.583H92.0988V24.837H88.6752V53.6835C88.6752 54.5196 88.8108 55.1072 89.0819 55.4462C89.3531 55.7851 89.8729 55.9546 90.6412 55.9546C91.1836 55.9546 91.6694 55.9094 92.0988 55.819V64.09C91.8276 64.1803 90.9802 64.3498 89.5565 64.5984C88.1328 64.8696 86.6865 65.0052 85.2177 65.0052Z"
    fill="white" />
  <path
    d="M110.776 65.0052C100.652 65.0052 95.5902 59.7511 95.5902 49.243V28.8369C95.5902 24.046 96.9348 20.227 99.624 17.3796C102.313 14.5096 106.031 13.0747 110.776 13.0747C115.544 13.0747 119.273 14.5096 121.962 17.3796C124.651 20.227 125.996 24.046 125.996 28.8369V49.243C125.996 59.7511 120.923 65.0052 110.776 65.0052ZM110.776 55.6495C111.793 55.6495 112.516 55.288 112.946 54.5648C113.398 53.8191 113.624 52.8813 113.624 51.7514V26.9047C113.624 23.9444 112.674 22.4642 110.776 22.4642C108.878 22.4642 107.929 23.9444 107.929 26.9047V51.7514C107.929 52.8813 108.143 53.8191 108.573 54.5648C109.025 55.288 109.759 55.6495 110.776 55.6495Z"
    fill="white" />
</svg>
