<svg width="121" height="57" viewBox="0 0 121 57" fill="none" xmlns="http://www.w3.org/2000/svg">
    <circle cx="112.5" cy="44.5" r="8.5" fill="#48CFCB"/>
    <path d="M2.13281 52V3.875H15.3672C18.8307 3.875 21.4375 4.84115 23.1875 6.77344C24.9375 8.6875 25.8125 11.4948 25.8125 15.1953V37.7266C25.8125 42.2839 25.0104 45.8021 23.4062 48.2812C21.8203 50.7604 19.0312 52 15.0391 52H2.13281ZM11.8125 43.4961H13.4805C15.2487 43.4961 16.1328 42.6393 16.1328 40.9258V16.0977C16.1328 14.4935 15.9141 13.4635 15.4766 13.0078C15.0573 12.5339 14.1914 12.2969 12.8789 12.2969H11.8125V43.4961Z" fill="black"/>
    <path d="M29.5312 8.46875V0.320312H39.3203V8.46875H29.5312ZM29.5312 52V10.9844H39.3203V52H29.5312Z" fill="black"/>
    <path d="M51.625 52.4375C48.9818 52.4375 47.1953 51.8815 46.2656 50.7695C45.3542 49.6393 44.8984 47.9167 44.8984 45.6016V20.0352H42.1367V12.5703H44.8984V3.875H54.4141V12.5703H57.1758V20.0352H54.4141V43.3047C54.4141 43.9792 54.5234 44.4531 54.7422 44.7266C54.9609 45 55.3802 45.1367 56 45.1367C56.4375 45.1367 56.8294 45.1003 57.1758 45.0273V51.6992C56.957 51.7721 56.2734 51.9089 55.125 52.1094C53.9766 52.3281 52.8099 52.4375 51.625 52.4375Z" fill="black"/>
    <path d="M68.7422 52.4375C66.099 52.4375 64.3125 51.8815 63.3828 50.7695C62.4714 49.6393 62.0156 47.9167 62.0156 45.6016V20.0352H59.2539V12.5703H62.0156V3.875H71.5312V12.5703H74.293V20.0352H71.5312V43.3047C71.5312 43.9792 71.6406 44.4531 71.8594 44.7266C72.0781 45 72.4974 45.1367 73.1172 45.1367C73.5547 45.1367 73.9466 45.1003 74.293 45.0273V51.6992C74.0742 51.7721 73.3906 51.9089 72.2422 52.1094C71.0938 52.3281 69.9271 52.4375 68.7422 52.4375Z" fill="black"/>
    <path d="M89.3594 52.4375C81.1927 52.4375 77.1094 48.1992 77.1094 39.7227V23.2617C77.1094 19.3971 78.194 16.3164 80.3633 14.0195C82.5326 11.7044 85.5312 10.5469 89.3594 10.5469C93.2057 10.5469 96.2135 11.7044 98.3828 14.0195C100.552 16.3164 101.637 19.3971 101.637 23.2617V39.7227C101.637 48.1992 97.5443 52.4375 89.3594 52.4375ZM89.3594 44.8906C90.1797 44.8906 90.763 44.599 91.1094 44.0156C91.474 43.4141 91.6562 42.6576 91.6562 41.7461V21.7031C91.6562 19.3151 90.8906 18.1211 89.3594 18.1211C87.8281 18.1211 87.0625 19.3151 87.0625 21.7031V41.7461C87.0625 42.6576 87.2357 43.4141 87.582 44.0156C87.9466 44.599 88.5391 44.8906 89.3594 44.8906Z" fill="black"/>
</svg>
